<svg xmlns="http://www.w3.org/2000/svg" xmlns:xlink="http://www.w3.org/1999/xlink" contentStyleType="text/css" height="1724px" preserveAspectRatio="none" style="width:1337px;height:1724px;background:#FFFFFF;" version="1.1" viewBox="0 0 1337 1724" width="1337px" zoomAndPan="magnify"><defs/><g><rect fill="#FF0000" fill-opacity="0.33333" height="180.1094" style="stroke:#FF000055;stroke-width:1.0;" width="920.4336" x="117.2192" y="438.125"/><rect fill="#DDDDDD" height="119.4063" style="stroke:#DDDDDD;stroke-width:1.0;" width="733.6729" x="558.0889" y="776.6406"/><rect fill="#98FB98" height="180.1094" style="stroke:#98FB98;stroke-width:1.0;" width="920.4336" x="117.2192" y="1294.9453"/><line style="stroke:#181818;stroke-width:1.0;" x1="507.1078" x2="507.1078" y1="656.5859" y2="1021.4531"/><polygon fill="#181818" points="503.1078,666.5859,507.1078,656.5859,511.1078,666.5859,507.1078,662.5859" style="stroke:#181818;stroke-width:1.0;"/><polygon fill="#181818" points="503.1078,1011.4531,507.1078,1021.4531,511.1078,1011.4531,507.1078,1015.4531" style="stroke:#181818;stroke-width:1.0;"/><text fill="#0000FF" font-family="sans-serif" font-size="13" font-weight="bold" lengthAdjust="spacing" textLength="184.9009" x="511.1078" y="844.3389">TRANSACTION PROCESSING</text><line style="stroke:#181818;stroke-width:0.5;stroke-dasharray:5.0,5.0;" x1="29.0103" x2="29.0103" y1="82.6094" y2="1031.4531"/><line style="stroke:#A80036;stroke-width:1.0;stroke-dasharray:1.0,4.0;" x1="29.0103" x2="29.0103" y1="1031.4531" y2="1059.4531"/><line style="stroke:#181818;stroke-width:0.5;stroke-dasharray:5.0,5.0;" x1="29.0103" x2="29.0103" y1="1059.4531" y2="1519.4063"/><line style="stroke:#A80036;stroke-width:1.0;stroke-dasharray:1.0,4.0;" x1="29.0103" x2="29.0103" y1="1519.4063" y2="1547.4063"/><line style="stroke:#181818;stroke-width:0.5;stroke-dasharray:5.0,5.0;" x1="29.0103" x2="29.0103" y1="1547.4063" y2="1679.8438"/><line style="stroke:#A80036;stroke-width:1.0;stroke-dasharray:1.0,4.0;" x1="29.0103" x2="29.0103" y1="1679.8438" y2="1707.8438"/><line style="stroke:#181818;stroke-width:0.5;stroke-dasharray:5.0,5.0;" x1="29.0103" x2="29.0103" y1="1707.8438" y2="1717.8438"/><line style="stroke:#181818;stroke-width:0.5;stroke-dasharray:5.0,5.0;" x1="133.2192" x2="133.2192" y1="82.6094" y2="1031.4531"/><line style="stroke:#A80036;stroke-width:1.0;stroke-dasharray:1.0,4.0;" x1="133.2192" x2="133.2192" y1="1031.4531" y2="1059.4531"/><line style="stroke:#181818;stroke-width:0.5;stroke-dasharray:5.0,5.0;" x1="133.2192" x2="133.2192" y1="1059.4531" y2="1519.4063"/><line style="stroke:#A80036;stroke-width:1.0;stroke-dasharray:1.0,4.0;" x1="133.2192" x2="133.2192" y1="1519.4063" y2="1547.4063"/><line style="stroke:#181818;stroke-width:0.5;stroke-dasharray:5.0,5.0;" x1="133.2192" x2="133.2192" y1="1547.4063" y2="1679.8438"/><line style="stroke:#A80036;stroke-width:1.0;stroke-dasharray:1.0,4.0;" x1="133.2192" x2="133.2192" y1="1679.8438" y2="1707.8438"/><line style="stroke:#181818;stroke-width:0.5;stroke-dasharray:5.0,5.0;" x1="133.2192" x2="133.2192" y1="1707.8438" y2="1717.8438"/><line style="stroke:#181818;stroke-width:0.5;stroke-dasharray:5.0,5.0;" x1="339.4326" x2="339.4326" y1="82.6094" y2="1031.4531"/><line style="stroke:#A80036;stroke-width:1.0;stroke-dasharray:1.0,4.0;" x1="339.4326" x2="339.4326" y1="1031.4531" y2="1059.4531"/><line style="stroke:#181818;stroke-width:0.5;stroke-dasharray:5.0,5.0;" x1="339.4326" x2="339.4326" y1="1059.4531" y2="1519.4063"/><line style="stroke:#A80036;stroke-width:1.0;stroke-dasharray:1.0,4.0;" x1="339.4326" x2="339.4326" y1="1519.4063" y2="1547.4063"/><line style="stroke:#181818;stroke-width:0.5;stroke-dasharray:5.0,5.0;" x1="339.4326" x2="339.4326" y1="1547.4063" y2="1679.8438"/><line style="stroke:#A80036;stroke-width:1.0;stroke-dasharray:1.0,4.0;" x1="339.4326" x2="339.4326" y1="1679.8438" y2="1707.8438"/><line style="stroke:#181818;stroke-width:0.5;stroke-dasharray:5.0,5.0;" x1="339.4326" x2="339.4326" y1="1707.8438" y2="1717.8438"/><line style="stroke:#181818;stroke-width:0.5;stroke-dasharray:5.0,5.0;" x1="574.0889" x2="574.0889" y1="82.6094" y2="1031.4531"/><line style="stroke:#A80036;stroke-width:1.0;stroke-dasharray:1.0,4.0;" x1="574.0889" x2="574.0889" y1="1031.4531" y2="1059.4531"/><line style="stroke:#181818;stroke-width:0.5;stroke-dasharray:5.0,5.0;" x1="574.0889" x2="574.0889" y1="1059.4531" y2="1519.4063"/><line style="stroke:#A80036;stroke-width:1.0;stroke-dasharray:1.0,4.0;" x1="574.0889" x2="574.0889" y1="1519.4063" y2="1547.4063"/><line style="stroke:#181818;stroke-width:0.5;stroke-dasharray:5.0,5.0;" x1="574.0889" x2="574.0889" y1="1547.4063" y2="1679.8438"/><line style="stroke:#A80036;stroke-width:1.0;stroke-dasharray:1.0,4.0;" x1="574.0889" x2="574.0889" y1="1679.8438" y2="1707.8438"/><line style="stroke:#181818;stroke-width:0.5;stroke-dasharray:5.0,5.0;" x1="574.0889" x2="574.0889" y1="1707.8438" y2="1717.8438"/><line style="stroke:#181818;stroke-width:0.5;stroke-dasharray:5.0,5.0;" x1="747.0342" x2="747.0342" y1="82.6094" y2="1031.4531"/><line style="stroke:#A80036;stroke-width:1.0;stroke-dasharray:1.0,4.0;" x1="747.0342" x2="747.0342" y1="1031.4531" y2="1059.4531"/><line style="stroke:#181818;stroke-width:0.5;stroke-dasharray:5.0,5.0;" x1="747.0342" x2="747.0342" y1="1059.4531" y2="1519.4063"/><line style="stroke:#A80036;stroke-width:1.0;stroke-dasharray:1.0,4.0;" x1="747.0342" x2="747.0342" y1="1519.4063" y2="1547.4063"/><line style="stroke:#181818;stroke-width:0.5;stroke-dasharray:5.0,5.0;" x1="747.0342" x2="747.0342" y1="1547.4063" y2="1679.8438"/><line style="stroke:#A80036;stroke-width:1.0;stroke-dasharray:1.0,4.0;" x1="747.0342" x2="747.0342" y1="1679.8438" y2="1707.8438"/><line style="stroke:#181818;stroke-width:0.5;stroke-dasharray:5.0,5.0;" x1="747.0342" x2="747.0342" y1="1707.8438" y2="1717.8438"/><line style="stroke:#181818;stroke-width:0.5;stroke-dasharray:5.0,5.0;" x1="844.4648" x2="844.4648" y1="82.6094" y2="1031.4531"/><line style="stroke:#A80036;stroke-width:1.0;stroke-dasharray:1.0,4.0;" x1="844.4648" x2="844.4648" y1="1031.4531" y2="1059.4531"/><line style="stroke:#181818;stroke-width:0.5;stroke-dasharray:5.0,5.0;" x1="844.4648" x2="844.4648" y1="1059.4531" y2="1519.4063"/><line style="stroke:#A80036;stroke-width:1.0;stroke-dasharray:1.0,4.0;" x1="844.4648" x2="844.4648" y1="1519.4063" y2="1547.4063"/><line style="stroke:#181818;stroke-width:0.5;stroke-dasharray:5.0,5.0;" x1="844.4648" x2="844.4648" y1="1547.4063" y2="1679.8438"/><line style="stroke:#A80036;stroke-width:1.0;stroke-dasharray:1.0,4.0;" x1="844.4648" x2="844.4648" y1="1679.8438" y2="1707.8438"/><line style="stroke:#181818;stroke-width:0.5;stroke-dasharray:5.0,5.0;" x1="844.4648" x2="844.4648" y1="1707.8438" y2="1717.8438"/><line style="stroke:#181818;stroke-width:0.5;stroke-dasharray:5.0,5.0;" x1="1021.6528" x2="1021.6528" y1="82.6094" y2="1031.4531"/><line style="stroke:#A80036;stroke-width:1.0;stroke-dasharray:1.0,4.0;" x1="1021.6528" x2="1021.6528" y1="1031.4531" y2="1059.4531"/><line style="stroke:#181818;stroke-width:0.5;stroke-dasharray:5.0,5.0;" x1="1021.6528" x2="1021.6528" y1="1059.4531" y2="1519.4063"/><line style="stroke:#A80036;stroke-width:1.0;stroke-dasharray:1.0,4.0;" x1="1021.6528" x2="1021.6528" y1="1519.4063" y2="1547.4063"/><line style="stroke:#181818;stroke-width:0.5;stroke-dasharray:5.0,5.0;" x1="1021.6528" x2="1021.6528" y1="1547.4063" y2="1679.8438"/><line style="stroke:#A80036;stroke-width:1.0;stroke-dasharray:1.0,4.0;" x1="1021.6528" x2="1021.6528" y1="1679.8438" y2="1707.8438"/><line style="stroke:#181818;stroke-width:0.5;stroke-dasharray:5.0,5.0;" x1="1021.6528" x2="1021.6528" y1="1707.8438" y2="1717.8438"/><line style="stroke:#181818;stroke-width:0.5;stroke-dasharray:5.0,5.0;" x1="1275.7617" x2="1275.7617" y1="82.6094" y2="1031.4531"/><line style="stroke:#A80036;stroke-width:1.0;stroke-dasharray:1.0,4.0;" x1="1275.7617" x2="1275.7617" y1="1031.4531" y2="1059.4531"/><line style="stroke:#181818;stroke-width:0.5;stroke-dasharray:5.0,5.0;" x1="1275.7617" x2="1275.7617" y1="1059.4531" y2="1519.4063"/><line style="stroke:#A80036;stroke-width:1.0;stroke-dasharray:1.0,4.0;" x1="1275.7617" x2="1275.7617" y1="1519.4063" y2="1547.4063"/><line style="stroke:#181818;stroke-width:0.5;stroke-dasharray:5.0,5.0;" x1="1275.7617" x2="1275.7617" y1="1547.4063" y2="1679.8438"/><line style="stroke:#A80036;stroke-width:1.0;stroke-dasharray:1.0,4.0;" x1="1275.7617" x2="1275.7617" y1="1679.8438" y2="1707.8438"/><line style="stroke:#181818;stroke-width:0.5;stroke-dasharray:5.0,5.0;" x1="1275.7617" x2="1275.7617" y1="1707.8438" y2="1717.8438"/><text fill="#000000" font-family="sans-serif" font-size="14" lengthAdjust="spacing" textLength="42.0205" x="5" y="79.5332">postier</text><ellipse cx="29.0103" cy="13.5" fill="#E2E2F0" rx="8" ry="8" style="stroke:#181818;stroke-width:0.5;"/><path d="M29.0103,21.5 L29.0103,48.5 M16.0103,29.5 L42.0103,29.5 M29.0103,48.5 L16.0103,63.5 M29.0103,48.5 L42.0103,63.5 " fill="none" style="stroke:#181818;stroke-width:0.5;"/><rect fill="#FFFFFF" height="31.6094" rx="2.5" ry="2.5" style="stroke:#181818;stroke-width:0.5;" width="64.5723" x="100.9331" y="50"/><text fill="#000000" font-family="sans-serif" font-size="14" lengthAdjust="spacing" textLength="50.5723" x="107.9331" y="71.5332">smarteo</text><rect fill="#FFFFFF" height="31.6094" rx="2.5" ry="2.5" style="stroke:#181818;stroke-width:0.5;" width="127.6338" x="275.6157" y="50"/><text fill="#000000" font-family="sans-serif" font-size="14" lengthAdjust="spacing" textLength="113.6338" x="282.6157" y="71.5332">Backend La Poste</text><rect fill="#FFFFFF" height="31.6094" rx="2.5" ry="2.5" style="stroke:#181818;stroke-width:0.5;" width="66.1309" x="541.0234" y="50"/><text fill="#000000" font-family="sans-serif" font-size="14" lengthAdjust="spacing" textLength="52.1309" x="548.0234" y="71.5332">softPOS</text><text fill="#000000" font-family="sans-serif" font-size="14" lengthAdjust="spacing" textLength="44.3584" x="721.855" y="79.5332">porteur</text><ellipse cx="747.0342" cy="13.5" fill="#E2E2F0" rx="8" ry="8" style="stroke:#181818;stroke-width:0.5;"/><path d="M747.0342,21.5 L747.0342,48.5 M734.0342,29.5 L760.0342,29.5 M747.0342,48.5 L734.0342,63.5 M747.0342,48.5 L760.0342,63.5 " fill="none" style="stroke:#181818;stroke-width:0.5;"/><rect fill="#FFFFFF" height="31.6094" rx="2.5" ry="2.5" style="stroke:#181818;stroke-width:0.5;" width="124.5029" x="782.2134" y="50"/><text fill="#000000" font-family="sans-serif" font-size="14" lengthAdjust="spacing" textLength="110.5029" x="789.2134" y="71.5332">Backend softPOS</text><rect fill="#FFFFFF" height="31.6094" rx="2.5" ry="2.5" style="stroke:#181818;stroke-width:0.5;" width="118.2822" x="962.5117" y="50"/><text fill="#000000" font-family="sans-serif" font-size="14" lengthAdjust="spacing" textLength="104.2822" x="969.5117" y="71.5332">Backend monext</text><rect fill="#FFFFFF" height="31.6094" rx="2.5" ry="2.5" style="stroke:#181818;stroke-width:0.5;" width="110.4756" x="1220.5239" y="50"/><text fill="#000000" font-family="sans-serif" font-size="14" lengthAdjust="spacing" textLength="96.4756" x="1227.5239" y="71.5332">SAA Transactis</text><polygon fill="#181818" points="40.0103,108.9609,30.0103,112.9609,40.0103,116.9609,36.0103,112.9609" style="stroke:#181818;stroke-width:1.0;"/><polygon fill="#181818" points="121.2192,108.9609,131.2192,112.9609,121.2192,116.9609,125.2192,112.9609" style="stroke:#181818;stroke-width:1.0;"/><line style="stroke:#181818;stroke-width:1.0;" x1="34.0103" x2="127.2192" y1="112.9609" y2="112.9609"/><text fill="#000000" font-family="sans-serif" font-size="13" lengthAdjust="spacing" textLength="59.2681" x="46.0103" y="108.1045">connexion</text><polygon fill="#181818" points="144.2192,139.3125,134.2192,143.3125,144.2192,147.3125,140.2192,143.3125" style="stroke:#181818;stroke-width:1.0;"/><polygon fill="#181818" points="327.4326,139.3125,337.4326,143.3125,327.4326,147.3125,331.4326,143.3125" style="stroke:#181818;stroke-width:1.0;"/><line style="stroke:#181818;stroke-width:1.0;" x1="138.2192" x2="333.4326" y1="143.3125" y2="143.3125"/><text fill="#000000" font-family="sans-serif" font-size="13" lengthAdjust="spacing" textLength="87.4517" x="150.2192" y="138.4561">authentification</text><polygon fill="#181818" points="121.2192,169.6641,131.2192,173.6641,121.2192,177.6641,125.2192,173.6641" style="stroke:#181818;stroke-width:1.0;"/><line style="stroke:#181818;stroke-width:1.0;" x1="29.0103" x2="127.2192" y1="173.6641" y2="173.6641"/><text fill="#000000" font-family="sans-serif" font-size="13" lengthAdjust="spacing" textLength="68.6499" x="36.0103" y="168.8076">saisie vente</text><polygon fill="#181818" points="121.2192,200.0156,131.2192,204.0156,121.2192,208.0156,125.2192,204.0156" style="stroke:#181818;stroke-width:1.0;"/><line style="stroke:#181818;stroke-width:1.0;" x1="29.0103" x2="127.2192" y1="204.0156" y2="204.0156"/><text fill="#000000" font-family="sans-serif" font-size="13" lengthAdjust="spacing" textLength="80.209" x="36.0103" y="199.1592">encaissement</text><line style="stroke:#181818;stroke-width:1.0;" x1="133.2192" x2="175.2192" y1="234.3672" y2="234.3672"/><line style="stroke:#181818;stroke-width:1.0;" x1="175.2192" x2="175.2192" y1="234.3672" y2="247.3672"/><line style="stroke:#181818;stroke-width:1.0;" x1="134.2192" x2="175.2192" y1="247.3672" y2="247.3672"/><polygon fill="#181818" points="144.2192,243.3672,134.2192,247.3672,144.2192,251.3672,140.2192,247.3672" style="stroke:#181818;stroke-width:1.0;"/><text fill="#000000" font-family="sans-serif" font-size="13" lengthAdjust="spacing" textLength="192.2134" x="140.2192" y="229.5107">Affectation transaction ID externe</text><polygon fill="#181818" points="562.0889,273.7188,572.0889,277.7188,562.0889,281.7188,566.0889,277.7188" style="stroke:#181818;stroke-width:1.0;"/><line style="stroke:#181818;stroke-width:1.0;" x1="133.2192" x2="568.0889" y1="277.7188" y2="277.7188"/><text fill="#000000" font-family="sans-serif" font-size="13" lengthAdjust="spacing" textLength="156.0762" x="140.2192" y="272.8623">initialisation (user LaPoste)</text><polygon fill="#181818" points="832.4648,304.0703,842.4648,308.0703,832.4648,312.0703,836.4648,308.0703" style="stroke:#181818;stroke-width:1.0;"/><line style="stroke:#181818;stroke-width:1.0;" x1="574.0889" x2="838.4648" y1="308.0703" y2="308.0703"/><text fill="#000000" font-family="sans-serif" font-size="13" lengthAdjust="spacing" textLength="156.0762" x="581.0889" y="303.2139">initialisation (user LaPoste)</text><line style="stroke:#181818;stroke-width:1.0;" x1="844.4648" x2="886.4648" y1="338.4219" y2="338.4219"/><line style="stroke:#181818;stroke-width:1.0;" x1="886.4648" x2="886.4648" y1="338.4219" y2="351.4219"/><line style="stroke:#181818;stroke-width:1.0;" x1="845.4648" x2="886.4648" y1="351.4219" y2="351.4219"/><polygon fill="#181818" points="855.4648,347.4219,845.4648,351.4219,855.4648,355.4219,851.4648,351.4219" style="stroke:#181818;stroke-width:1.0;"/><text fill="#000000" font-family="sans-serif" font-size="13" lengthAdjust="spacing" textLength="128.6226" x="851.4648" y="333.5654">stockage user session</text><rect fill="#EEEEEE" height="3" style="stroke:#EEEEEE;stroke-width:1.0;" width="1325.9995" x="5" y="380.5977"/><line style="stroke:#000000;stroke-width:1.0;" x1="5" x2="1330.9995" y1="380.5977" y2="380.5977"/><line style="stroke:#000000;stroke-width:1.0;" x1="5" x2="1330.9995" y1="383.5977" y2="383.5977"/><rect fill="#EEEEEE" height="24.3516" style="stroke:#000000;stroke-width:2.0;" width="59.4937" x="638.2529" y="369.4219"/><text fill="#000000" font-family="sans-serif" font-size="13" font-weight="bold" lengthAdjust="spacing" textLength="45.4937" x="644.2529" y="386.917">ACHAT</text><polygon fill="#181818" points="562.0889,422.125,572.0889,426.125,562.0889,430.125,566.0889,426.125" style="stroke:#181818;stroke-width:1.0;"/><line style="stroke:#181818;stroke-width:1.0;" x1="133.2192" x2="568.0889" y1="426.125" y2="426.125"/><text fill="#000000" font-family="sans-serif" font-size="13" lengthAdjust="spacing" textLength="138.0107" x="140.2192" y="421.2686">d&#233;marrage transaction (</text><text fill="#000000" font-family="sans-serif" font-size="13" font-weight="bold" lengthAdjust="spacing" textLength="45.4937" x="278.23" y="421.2686">ACHAT</text><text fill="#000000" font-family="sans-serif" font-size="13" lengthAdjust="spacing" textLength="192.9243" x="323.7236" y="421.2686">, montant, transaction ID externe)</text><path d="M117.2192,438.125 L307.4028,438.125 L307.4028,446.4766 L297.4028,456.4766 L117.2192,456.4766 L117.2192,438.125 " fill="#EEEEEE" style="stroke:#000000;stroke-width:1.5;"/><rect fill="none" height="180.1094" style="stroke:#000000;stroke-width:1.5;" width="920.4336" x="117.2192" y="438.125"/><text fill="#000000" font-family="sans-serif" font-size="13" font-weight="bold" lengthAdjust="spacing" textLength="145.1836" x="132.2192" y="452.6201">V&#233;rification Habilitation</text><polygon fill="#181818" points="1009.6528,484.8281,1019.6528,488.8281,1009.6528,492.8281,1013.6528,488.8281" style="stroke:#181818;stroke-width:1.0;"/><line style="stroke:#181818;stroke-width:1.0;" x1="574.0889" x2="1015.6528" y1="488.8281" y2="488.8281"/><text fill="#000000" font-family="sans-serif" font-size="13" lengthAdjust="spacing" textLength="228.6616" x="581.0889" y="483.9717">V&#233;rification d'habilitation (user LaPoste)</text><polygon fill="#181818" points="350.4326,515.1797,340.4326,519.1797,350.4326,523.1797,346.4326,519.1797" style="stroke:#181818;stroke-width:1.0;"/><line style="stroke:#181818;stroke-width:1.0;" x1="344.4326" x2="1020.6528" y1="519.1797" y2="519.1797"/><text fill="#000000" font-family="sans-serif" font-size="13" lengthAdjust="spacing" textLength="228.6616" x="356.4326" y="514.3232">V&#233;rification d'habilitation (user LaPoste)</text><polygon fill="#181818" points="1009.6528,545.5313,1019.6528,549.5313,1009.6528,553.5313,1013.6528,549.5313" style="stroke:#181818;stroke-width:1.0;"/><line style="stroke:#181818;stroke-width:1.0;" x1="339.4326" x2="1015.6528" y1="549.5313" y2="549.5313"/><text fill="#000000" font-family="sans-serif" font-size="13" lengthAdjust="spacing" textLength="153.188" x="346.4326" y="544.6748">Habilitation (user LaPoste)</text><polygon fill="#181818" points="855.4648,575.8828,845.4648,579.8828,855.4648,583.8828,851.4648,579.8828" style="stroke:#181818;stroke-width:1.0;"/><line style="stroke:#181818;stroke-width:1.0;" x1="849.4648" x2="1020.6528" y1="579.8828" y2="579.8828"/><text fill="#000000" font-family="sans-serif" font-size="13" lengthAdjust="spacing" textLength="153.188" x="861.4648" y="575.0264">Habilitation (user LaPoste)</text><polygon fill="#181818" points="144.2192,606.2344,134.2192,610.2344,144.2192,614.2344,140.2192,610.2344" style="stroke:#181818;stroke-width:1.0;"/><line style="stroke:#181818;stroke-width:1.0;" x1="138.2192" x2="573.0889" y1="610.2344" y2="610.2344"/><text fill="#000000" font-family="sans-serif" font-size="13" lengthAdjust="spacing" textLength="271.7114" x="150.2192" y="605.3779">Si habilitation, poursuite d&#233;marrage transaction</text><polygon fill="#181818" points="585.0889,650.5859,575.0889,654.5859,585.0889,658.5859,581.0889,654.5859" style="stroke:#181818;stroke-width:1.0;"/><line style="stroke:#181818;stroke-width:1.0;" x1="579.0889" x2="746.0342" y1="654.5859" y2="654.5859"/><text fill="#000000" font-family="sans-serif" font-size="13" lengthAdjust="spacing" textLength="104.0635" x="591.0889" y="649.7295">pr&#233;sentation carte</text><line style="stroke:#181818;stroke-width:1.0;" x1="574.0889" x2="616.0889" y1="684.9375" y2="684.9375"/><line style="stroke:#181818;stroke-width:1.0;" x1="616.0889" x2="616.0889" y1="684.9375" y2="697.9375"/><line style="stroke:#181818;stroke-width:1.0;" x1="575.0889" x2="616.0889" y1="697.9375" y2="697.9375"/><polygon fill="#181818" points="585.0889,693.9375,575.0889,697.9375,585.0889,701.9375,581.0889,697.9375" style="stroke:#181818;stroke-width:1.0;"/><text fill="#000000" font-family="sans-serif" font-size="13" lengthAdjust="spacing" textLength="158.9453" x="581.0889" y="680.0811">Terminal Risk Management</text><path d="M534.9373,710.9375 L534.9373,736.9375 L1313.9373,736.9375 L1313.9373,720.9375 L1303.9373,710.9375 L534.9373,710.9375 " fill="#FFCFB3" style="stroke:#181818;stroke-width:0.5;"/><path d="M1303.9373,710.9375 L1303.9373,720.9375 L1313.9373,720.9375 L1303.9373,710.9375 " fill="#FFCFB3" style="stroke:#181818;stroke-width:0.5;"/><text fill="#000000" font-family="sans-serif" font-size="13" lengthAdjust="spacing" textLength="109.8398" x="865.5054" y="729.4326">Autorisation Online</text><polygon fill="#181818" points="1263.7617,760.6406,1273.7617,764.6406,1263.7617,768.6406,1267.7617,764.6406" style="stroke:#181818;stroke-width:1.0;"/><line style="stroke:#181818;stroke-width:1.0;" x1="574.0889" x2="1269.7617" y1="764.6406" y2="764.6406"/><text fill="#000000" font-family="sans-serif" font-size="13" lengthAdjust="spacing" textLength="134.7417" x="581.0889" y="759.7842">demande d'autorisation</text><path d="M558.0889,776.6406 L623.2998,776.6406 L623.2998,784.9922 L613.2998,794.9922 L558.0889,794.9922 L558.0889,776.6406 " fill="#EEEEEE" style="stroke:#000000;stroke-width:1.5;"/><rect fill="none" height="119.4063" style="stroke:#000000;stroke-width:1.5;" width="733.6729" x="558.0889" y="776.6406"/><text fill="#000000" font-family="sans-serif" font-size="13" font-weight="bold" lengthAdjust="spacing" textLength="20.2109" x="573.0889" y="791.1357">opt</text><text fill="#000000" font-family="sans-serif" font-size="11" font-weight="bold" lengthAdjust="spacing" textLength="72.73" x="638.2998" y="790.0596">[PIN required]</text><polygon fill="#181818" points="585.0889,823.3438,575.0889,827.3438,585.0889,831.3438,581.0889,827.3438" style="stroke:#181818;stroke-width:1.0;"/><polygon fill="#181818" points="1263.7617,823.3438,1273.7617,827.3438,1263.7617,831.3438,1267.7617,827.3438" style="stroke:#181818;stroke-width:1.0;"/><line style="stroke:#181818;stroke-width:1.0;stroke-dasharray:2.0,2.0;" x1="579.0889" x2="1269.7617" y1="827.3438" y2="827.3438"/><text fill="#000000" font-family="sans-serif" font-size="13" lengthAdjust="spacing" textLength="229.7788" x="591.0889" y="822.4873">Emetteur requiert code (Autor Code A2)</text><polygon fill="#181818" points="585.0889,853.6953,575.0889,857.6953,585.0889,861.6953,581.0889,857.6953" style="stroke:#181818;stroke-width:1.0;"/><polygon fill="#181818" points="735.0342,853.6953,745.0342,857.6953,735.0342,861.6953,739.0342,857.6953" style="stroke:#181818;stroke-width:1.0;"/><line style="stroke:#181818;stroke-width:1.0;" x1="579.0889" x2="741.0342" y1="857.6953" y2="857.6953"/><text fill="#000000" font-family="sans-serif" font-size="13" lengthAdjust="spacing" textLength="58.519" x="591.0889" y="852.8389">saisie PIN</text><polygon fill="#181818" points="1263.7617,884.0469,1273.7617,888.0469,1263.7617,892.0469,1267.7617,888.0469" style="stroke:#181818;stroke-width:1.0;"/><line style="stroke:#181818;stroke-width:1.0;" x1="574.0889" x2="1269.7617" y1="888.0469" y2="888.0469"/><text fill="#000000" font-family="sans-serif" font-size="13" lengthAdjust="spacing" textLength="134.7417" x="581.0889" y="883.1904">demande d'autorisation</text><polygon fill="#181818" points="855.4648,928.3984,845.4648,932.3984,855.4648,936.3984,851.4648,932.3984" style="stroke:#181818;stroke-width:1.0;"/><line style="stroke:#181818;stroke-width:1.0;" x1="849.4648" x2="1274.7617" y1="932.3984" y2="932.3984"/><text fill="#000000" font-family="sans-serif" font-size="13" lengthAdjust="spacing" textLength="128.6416" x="861.4648" y="927.542">r&#233;ponse &#224; autorisation</text><polygon fill="#181818" points="585.0889,958.75,575.0889,962.75,585.0889,966.75,581.0889,962.75" style="stroke:#181818;stroke-width:1.0;"/><line style="stroke:#181818;stroke-width:1.0;" x1="579.0889" x2="843.4648" y1="962.75" y2="962.75"/><text fill="#000000" font-family="sans-serif" font-size="13" lengthAdjust="spacing" textLength="234.0889" x="591.0889" y="957.8936">softPOS -&gt; acq : demande d'autorisation</text><polygon fill="#181818" points="832.4648,989.1016,842.4648,993.1016,832.4648,997.1016,836.4648,993.1016" style="stroke:#181818;stroke-width:1.0;"/><line style="stroke:#181818;stroke-width:1.0;" x1="574.0889" x2="838.4648" y1="993.1016" y2="993.1016"/><text fill="#000000" font-family="sans-serif" font-size="13" lengthAdjust="spacing" textLength="61.4263" x="581.0889" y="988.2451">finalisation</text><polygon fill="#181818" points="144.2192,1019.4531,134.2192,1023.4531,144.2192,1027.4531,140.2192,1023.4531" style="stroke:#181818;stroke-width:1.0;"/><line style="stroke:#181818;stroke-width:1.0;" x1="138.2192" x2="573.0889" y1="1023.4531" y2="1023.4531"/><text fill="#000000" font-family="sans-serif" font-size="13" lengthAdjust="spacing" textLength="114.8926" x="150.2192" y="1018.5967">R&#233;sultat transaction</text><rect fill="#EEEEEE" height="3" style="stroke:#EEEEEE;stroke-width:1.0;" width="1325.9995" x="5" y="1083.1445"/><line style="stroke:#000000;stroke-width:1.0;" x1="5" x2="1330.9995" y1="1083.1445" y2="1083.1445"/><line style="stroke:#000000;stroke-width:1.0;" x1="5" x2="1330.9995" y1="1086.1445" y2="1086.1445"/><rect fill="#EEEEEE" height="29.3828" style="stroke:#000000;stroke-width:2.0;" width="254.814" x="540.5928" y="1069.4531"/><text fill="#000000" font-family="sans-serif" font-size="17" font-weight="bold" lengthAdjust="spacing" textLength="240.814" x="546.5928" y="1091.1006">ANNULATION TRANSACTION</text><polygon fill="#181818" points="1263.7617,1127.1875,1273.7617,1131.1875,1263.7617,1135.1875,1267.7617,1131.1875" style="stroke:#181818;stroke-width:1.0;"/><line style="stroke:#181818;stroke-width:1.0;" x1="574.0889" x2="1269.7617" y1="1131.1875" y2="1131.1875"/><text fill="#000000" font-family="sans-serif" font-size="13" lengthAdjust="spacing" textLength="223.6343" x="581.0889" y="1126.3311">demande d'autorisation  sur annulation</text><polygon fill="#181818" points="855.4648,1157.5391,845.4648,1161.5391,855.4648,1165.5391,851.4648,1161.5391" style="stroke:#181818;stroke-width:1.0;"/><line style="stroke:#181818;stroke-width:1.0;" x1="849.4648" x2="1274.7617" y1="1161.5391" y2="1161.5391"/><text fill="#000000" font-family="sans-serif" font-size="13" lengthAdjust="spacing" textLength="128.6416" x="861.4648" y="1156.6826">r&#233;ponse &#224; autorisation</text><polygon fill="#181818" points="585.0889,1187.8906,575.0889,1191.8906,585.0889,1195.8906,581.0889,1191.8906" style="stroke:#181818;stroke-width:1.0;"/><line style="stroke:#181818;stroke-width:1.0;" x1="579.0889" x2="843.4648" y1="1191.8906" y2="1191.8906"/><text fill="#000000" font-family="sans-serif" font-size="13" lengthAdjust="spacing" textLength="234.0889" x="591.0889" y="1187.0342">softPOS -&gt; acq : demande d'autorisation</text><polygon fill="#181818" points="832.4648,1218.2422,842.4648,1222.2422,832.4648,1226.2422,836.4648,1222.2422" style="stroke:#181818;stroke-width:1.0;"/><line style="stroke:#181818;stroke-width:1.0;" x1="574.0889" x2="838.4648" y1="1222.2422" y2="1222.2422"/><text fill="#000000" font-family="sans-serif" font-size="13" lengthAdjust="spacing" textLength="61.4263" x="581.0889" y="1217.3857">finalisation</text><polygon fill="#181818" points="144.2192,1248.5938,134.2192,1252.5938,144.2192,1256.5938,140.2192,1252.5938" style="stroke:#181818;stroke-width:1.0;"/><line style="stroke:#181818;stroke-width:1.0;" x1="138.2192" x2="573.0889" y1="1252.5938" y2="1252.5938"/><text fill="#000000" font-family="sans-serif" font-size="13" lengthAdjust="spacing" textLength="114.8926" x="150.2192" y="1247.7373">R&#233;sultat transaction</text><polygon fill="#181818" points="562.0889,1278.9453,572.0889,1282.9453,562.0889,1286.9453,566.0889,1282.9453" style="stroke:#181818;stroke-width:1.0;"/><line style="stroke:#181818;stroke-width:1.0;" x1="133.2192" x2="568.0889" y1="1282.9453" y2="1282.9453"/><text fill="#000000" font-family="sans-serif" font-size="13" lengthAdjust="spacing" textLength="138.0107" x="140.2192" y="1278.0889">d&#233;marrage transaction (</text><text fill="#000000" font-family="sans-serif" font-size="13" font-weight="bold" lengthAdjust="spacing" textLength="85.9346" x="278.23" y="1278.0889">ANNULATION</text><text fill="#000000" font-family="sans-serif" font-size="13" lengthAdjust="spacing" textLength="192.9243" x="364.1646" y="1278.0889">, montant, transaction ID externe)</text><path d="M117.2192,1294.9453 L478.2437,1294.9453 L478.2437,1303.2969 L468.2437,1313.2969 L117.2192,1313.2969 L117.2192,1294.9453 " fill="#EEEEEE" style="stroke:#000000;stroke-width:1.5;"/><rect fill="none" height="180.1094" style="stroke:#000000;stroke-width:1.5;" width="920.4336" x="117.2192" y="1294.9453"/><text fill="#000000" font-family="sans-serif" font-size="13" font-weight="bold" lengthAdjust="spacing" textLength="316.0244" x="132.2192" y="1309.4404">V&#233;rification Habilitation, type transaction = CREDIT</text><polygon fill="#181818" points="1009.6528,1341.6484,1019.6528,1345.6484,1009.6528,1349.6484,1013.6528,1345.6484" style="stroke:#181818;stroke-width:1.0;"/><line style="stroke:#181818;stroke-width:1.0;" x1="574.0889" x2="1015.6528" y1="1345.6484" y2="1345.6484"/><text fill="#000000" font-family="sans-serif" font-size="13" lengthAdjust="spacing" textLength="228.6616" x="581.0889" y="1340.792">V&#233;rification d'habilitation (user LaPoste)</text><polygon fill="#181818" points="350.4326,1372,340.4326,1376,350.4326,1380,346.4326,1376" style="stroke:#181818;stroke-width:1.0;"/><line style="stroke:#181818;stroke-width:1.0;" x1="344.4326" x2="1020.6528" y1="1376" y2="1376"/><text fill="#000000" font-family="sans-serif" font-size="13" lengthAdjust="spacing" textLength="228.6616" x="356.4326" y="1371.1436">V&#233;rification d'habilitation (user LaPoste)</text><polygon fill="#181818" points="1009.6528,1402.3516,1019.6528,1406.3516,1009.6528,1410.3516,1013.6528,1406.3516" style="stroke:#181818;stroke-width:1.0;"/><line style="stroke:#181818;stroke-width:1.0;" x1="339.4326" x2="1015.6528" y1="1406.3516" y2="1406.3516"/><text fill="#000000" font-family="sans-serif" font-size="13" lengthAdjust="spacing" textLength="153.188" x="346.4326" y="1401.4951">Habilitation (user LaPoste)</text><polygon fill="#181818" points="855.4648,1432.7031,845.4648,1436.7031,855.4648,1440.7031,851.4648,1436.7031" style="stroke:#181818;stroke-width:1.0;"/><line style="stroke:#181818;stroke-width:1.0;" x1="849.4648" x2="1020.6528" y1="1436.7031" y2="1436.7031"/><text fill="#000000" font-family="sans-serif" font-size="13" lengthAdjust="spacing" textLength="153.188" x="861.4648" y="1431.8467">Habilitation (user LaPoste)</text><polygon fill="#181818" points="144.2192,1463.0547,134.2192,1467.0547,144.2192,1471.0547,140.2192,1467.0547" style="stroke:#181818;stroke-width:1.0;"/><line style="stroke:#181818;stroke-width:1.0;" x1="138.2192" x2="573.0889" y1="1467.0547" y2="1467.0547"/><text fill="#000000" font-family="sans-serif" font-size="13" lengthAdjust="spacing" textLength="208.8442" x="150.2192" y="1462.1982">Si habilitation, poursuite  transaction</text><polygon fill="#181818" points="585.0889,1507.4063,575.0889,1511.4063,585.0889,1515.4063,581.0889,1511.4063" style="stroke:#181818;stroke-width:1.0;"/><line style="stroke:#181818;stroke-width:1.0;" x1="579.0889" x2="746.0342" y1="1511.4063" y2="1511.4063"/><text fill="#000000" font-family="sans-serif" font-size="13" lengthAdjust="spacing" textLength="104.0635" x="591.0889" y="1506.5498">pr&#233;sentation carte</text><rect fill="#EEEEEE" height="3" style="stroke:#EEEEEE;stroke-width:1.0;" width="1325.9995" x="5" y="1571.0977"/><line style="stroke:#000000;stroke-width:1.0;" x1="5" x2="1330.9995" y1="1571.0977" y2="1571.0977"/><line style="stroke:#000000;stroke-width:1.0;" x1="5" x2="1330.9995" y1="1574.0977" y2="1574.0977"/><rect fill="#EEEEEE" height="29.3828" style="stroke:#000000;stroke-width:2.0;" width="156.6323" x="589.6836" y="1557.4063"/><text fill="#000000" font-family="sans-serif" font-size="17" font-weight="bold" lengthAdjust="spacing" textLength="142.6323" x="595.6836" y="1579.0537">FIN DE JOURNEE</text><path d="M1225.8713,1601.7891 L1225.8713,1627.7891 L1324.8713,1627.7891 L1324.8713,1611.7891 L1314.8713,1601.7891 L1225.8713,1601.7891 " fill="#FEFFDD" style="stroke:#181818;stroke-width:0.5;"/><path d="M1314.8713,1601.7891 L1314.8713,1611.7891 L1324.8713,1611.7891 L1314.8713,1601.7891 " fill="#FEFFDD" style="stroke:#181818;stroke-width:0.5;"/><text fill="#000000" font-family="sans-serif" font-size="13" lengthAdjust="spacing" textLength="78.7808" x="1231.8713" y="1620.2842">fin de journ&#233;e</text><polygon fill="#181818" points="1263.7617,1667.8438,1273.7617,1671.8438,1263.7617,1675.8438,1267.7617,1671.8438" style="stroke:#181818;stroke-width:1.0;"/><line style="stroke:#181818;stroke-width:1.0;" x1="1021.6528" x2="1269.7617" y1="1671.8438" y2="1671.8438"/><text fill="#000000" font-family="sans-serif" font-size="13" lengthAdjust="spacing" textLength="230.1089" x="1028.6528" y="1650.6357">Constitution d'un fichier grand remettant</text><text fill="#000000" font-family="sans-serif" font-size="13" lengthAdjust="spacing" textLength="83.8018" x="1032.2646" y="1666.9873">vers transactis</text><line style="stroke:#181818;stroke-width:1.0;" x1="507.1078" x2="507.1078" y1="656.5859" y2="1021.4531"/><polygon fill="#181818" points="503.1078,666.5859,507.1078,656.5859,511.1078,666.5859,507.1078,662.5859" style="stroke:#181818;stroke-width:1.0;"/><polygon fill="#181818" points="503.1078,1011.4531,507.1078,1021.4531,511.1078,1011.4531,507.1078,1015.4531" style="stroke:#181818;stroke-width:1.0;"/><text fill="#0000FF" font-family="sans-serif" font-size="13" font-weight="bold" lengthAdjust="spacing" textLength="184.9009" x="511.1078" y="844.3389">TRANSACTION PROCESSING</text><!--SRC=[xLRBRjD05DtFLrnWGLkLWa1ieYIIcoOqA2HHaY9LGa8J-oOPQi-OcN6XLFmBstv7VemxTknuIWe5iK72Ap_EkSypHtwGQhvCE5XKNy3g3DbAH0WBfUnSVMRcGiYKQvx0c6ihGf5oQOzvUB7KAfDHHyLAGxCPyrGPY- -DlOgntOPpZ6Fr2LXpEZiVTDlio0F0DGEOtmfIKDXNrdow8J4UMlhWY08rIxS5W4de0PNtxg4h2sK40mvZb-mXS9EdYLFmsMfXnwDf5Pz2PNfth0sq2XLzI7O34oNniwrmzCXyu3G8OAQvD9HLc1p8mu-ChksCYu9sJMSWbYkx6H70iT8HwkBBAyslw5LFIJla2KAW1OzfZDkezJB-TkpgKqVfESRKSx4jQ3vfbrk21eHAqdW43QLyvxuNksa0p-mAfHKB4NBhG6KGBuRXmWY4IqBYRWJAa3064u9KYJn4i5XWQFCa9FRDCkY-VmAqFTGIFLwnVE89AIorBan1tSiCvHxmN6RxhCHjMYAD_99IuZoAiIgyu4k476lG63SCrce5dTDWrchjhYrQtz1hxNZrblOE3dBQmS6X4wUbxH_UqVC-St98uL6lzuokbo_XxVf6L-k0KpuNiIZ6ThjP2aqr-FZeyQh6sDMwOrK2-0C-aRpyf_VFLupwPuHQXrlbJ0NKYpeasyYqoOJ5EnR0d2laSwKZVcqi1IATVotjnjzXgjStXbHRr1EwfCohexXjm0nr8YIFOIBC1RpXahBcScTIKIdgqWcd01ywVt4xxVIENv3qC_AMKeqZ6Glfft1W4XCcN9B_Huzv3S-OIYqyEial6FU7eF5Z9ZH6v0vGzT5yKiNf9cZpDdCWQaiMG67tyYh8BEW-UBv_YzqkXrCTTahbONvLfvivbSeSoDitpJTLqY2ilu77g1t4xJhkcsxdmL-u_PI8QweeN_jEKKrewrbCM_U4muwEZkZGjo0O3iy6mQm_6i9i4WodGIU_9oEe2-gUnT8GQHrSoYmkIlktP_IxLbYDydVyCEKnBZMY_8aXKf2hrC_NWiwaUzAV_VVA7xpoBeUylolMbEySenHF0vhpTZDqlosDUPnXktvYnfDHfpkTzeUlM76L9wn7LdRIXTUZiycmsyrFrjP72rcJL4dQy85QaEiRh8-e07Jep5XXiyqwCacKSEL-JfRKQqGEwBoGvFPEqi-BDjiH65V7Tm00]--></g></svg>